<svg id="Layer_1" data-name="Layer 1" xmlns="http://www.w3.org/2000/svg" viewBox="0 0 436 120"><defs><style>.cls-1{fill:#5879b5;}</style></defs><title>logo_celeste</title><path class="cls-1" d="M43.93,76.29A23.84,23.84,0,0,1,29.12,67q-5.4-7.44-5.4-18.59t5.46-18.59a23.75,23.75,0,0,1,14.93-9.29l.58-.11a30.81,30.81,0,0,1,11.38,0l.52.11a19.79,19.79,0,0,1,8.66,4.13V20H77V78.67q0,13-7.73,20.73t-20.67,7.79a31.19,31.19,0,0,1-15.45-3.66A24.46,24.46,0,0,1,23.26,93l10.57-5.23A12.5,12.5,0,0,0,40.51,94a21.15,21.15,0,0,0,8.13,1.45q16.61,0,16.61-16.73V72.22a19.67,19.67,0,0,1-8.48,4.07l-.64.11a30.43,30.43,0,0,1-5.75.53,31.39,31.39,0,0,1-5.81-.53Zm6.45-44.61Q42,31.68,38.3,37.2q-2.85,4.19-2.85,11.21T38.3,59.68Q42,65.2,50.38,65.2t12-5.52q2.85-4.12,2.85-11.15v-.24q0-7-2.85-11.15Q58.68,31.68,50.38,31.68Z"/><path class="cls-1" d="M113,19.89q12.14,0,19.4,7.79t7.26,20.73q0,13-7.26,20.74T113,76.93q-12.13,0-19.4-7.78T86.33,48.41q0-13,7.26-20.73T113,19.89Zm0,45.25q8.36,0,12.08-5.46,2.85-4.24,2.85-11.27t-2.85-11.27q-3.72-5.46-12.08-5.46t-12.08,5.46q-2.79,4.24-2.79,11.27t2.79,11.27Q104.63,65.14,113,65.14Z"/><path class="cls-1" d="M162.3,74.43a22.26,22.26,0,0,1-9.82-9.87,34.75,34.75,0,0,1-3.54-16.15V19.89h11.79V48.41q0,7.08,2.38,11.27,3.13,5.46,10.22,5.46t10.11-5.29q2.44-4.12,2.5-11V19.89h11.79v57H185.94V73.44a9.79,9.79,0,0,1-1.57,1,25.6,25.6,0,0,1-22.07,0Z"/><path class="cls-1" d="M222,76.93H210.16V20H222v4.7a20.21,20.21,0,0,1,8.48-4.12l.58-.12a32.2,32.2,0,0,1,5.81-.52V31.74q-8.31,0-12,5.46Q222,41.39,222,48.41Z"/><path class="cls-1" d="M311,22.39a22.15,22.15,0,0,1,9.82,9.93,34.41,34.41,0,0,1,3.54,16.09V76.93H312.61V48.41q0-7-2.38-11.21-3.14-5.52-10.22-5.52T289.9,37q-2.43,4.06-2.5,11V76.93H275.61V20H287.4v3.43c.51-.35,1-.68,1.57-1a25.6,25.6,0,0,1,22.07,0Z"/><path class="cls-1" d="M387,53.52H346q2.26,11.63,15,11.62A20.21,20.21,0,0,0,370,63.22a12,12,0,0,0,5.52-5.4L386.08,63a22.92,22.92,0,0,1-9.87,10.22,30.87,30.87,0,0,1-15.28,3.72q-12.42,0-19.8-7.78t-7.44-20.74q0-13,7.26-20.73t19.4-7.79q10.63,0,17.6,6t8.6,16.44a32.13,32.13,0,0,1,.46,5.52v5.63ZM374.58,42.37q-2.49-10.68-14.23-10.69T346.12,42.37Z"/><path class="cls-1" d="M400.2,32.67l-8.25-1V19.89l8.25,1v-19H412v19l8.24-1V31.68l-8.24,1V59.1q0,3.6,1.56,5.05a5.39,5.39,0,0,0,3.55,1h3.08V76.93H417.1A16.07,16.07,0,0,1,404.84,72q-4.63-4.93-4.64-12.89V32.67Z"/><path class="cls-1" d="M240.11,59.54,249.63,50l-9.52-9.53,8.3-8.3L266.24,50,248.41,67.91Z"/><path class="cls-1" d="M100.52,108a1,1,0,0,1-1,.95H87.14a.94.94,0,0,1-1-.95V89a.94.94,0,0,1,1-1H99.57a.94.94,0,1,1,0,1.87H88.09V97.1h8.28a1,1,0,0,1,.95.92,1,1,0,0,1-.95,1H88.09v8.09H99.57A1,1,0,0,1,100.52,108Z"/><path class="cls-1" d="M106.57,89v19a.95.95,0,1,1-1.89,0V89a.95.95,0,1,1,1.89,0Z"/><path class="cls-1" d="M135.82,101c0,4.57-3.26,8-7.56,8a7.33,7.33,0,0,1-5.7-2.61v9.82a.94.94,0,0,1-1,1,1,1,0,0,1-1-1V93.86a1,1,0,0,1,1-.92.93.93,0,0,1,1,.92v1.66a7.4,7.4,0,0,1,5.7-2.58C132.56,92.94,135.82,96.38,135.82,101ZM134,101c0-3.5-2.46-6.14-5.69-6.14s-5.7,2.64-5.7,6.14A5.71,5.71,0,1,0,134,101Z"/><path class="cls-1" d="M154.69,93.86V108a1,1,0,0,1-1.9,0v-1.66A7.31,7.31,0,0,1,147.1,109c-4.31,0-7.57-3.44-7.57-8s3.26-8,7.57-8a7.38,7.38,0,0,1,5.69,2.58V93.86a1,1,0,0,1,1.9,0Zm-1.9,7.09c0-3.5-2.43-6.14-5.69-6.14s-5.67,2.64-5.67,6.14,2.43,6.11,5.67,6.11A5.78,5.78,0,0,0,152.79,101Z"/><path class="cls-1" d="M166.41,93.86a.94.94,0,0,1-.95,1,4.7,4.7,0,0,0-4.6,5V108a.94.94,0,1,1-1.87,0V93.86a.94.94,0,0,1,1.87,0v1a6.36,6.36,0,0,1,4.6-1.9A.94.94,0,0,1,166.41,93.86Z"/><path class="cls-1" d="M178.84,106.29a1,1,0,0,1,.12,1.34,3.86,3.86,0,0,1-6.77-2.49V94.81h-.86a.94.94,0,0,1,0-1.87h.86v-3a1,1,0,0,1,.95-1,.93.93,0,0,1,1,1v3h3.35a.94.94,0,1,1,0,1.87h-3.35v10.33a2,2,0,0,0,2,1.92,1.81,1.81,0,0,0,1.45-.68A1,1,0,0,1,178.84,106.29Z"/><path class="cls-1" d="M196.1,99.77V108a.92.92,0,0,1-.92.95.94.94,0,0,1-1-.95V99.77c0-2.85-1.86-5-4.45-5a4.81,4.81,0,0,0-4.74,5V108a.94.94,0,0,1-.95.95.92.92,0,0,1-.92-.95V93.86a.92.92,0,0,1,.92-.92.94.94,0,0,1,.95.92v1.07a6.57,6.57,0,0,1,4.74-2,6.05,6.05,0,0,1,4.63,2A7.17,7.17,0,0,1,196.1,99.77Z"/><path class="cls-1" d="M207.82,109c-4.33,0-7.56-3.44-7.56-8a8.47,8.47,0,0,1,2-5.63,7.1,7.1,0,0,1,5.4-2.38c4.24,0,7.3,3.36,7.3,8a1,1,0,0,1-.95,1H202.18a5.71,5.71,0,0,0,5.64,5.16,5.37,5.37,0,0,0,4.75-2.67,1,1,0,0,1,1.63,1A7.35,7.35,0,0,1,207.82,109Zm-5.64-9H213c-.35-3.08-2.43-5.19-5.34-5.19A5.56,5.56,0,0,0,202.18,100Z"/><path class="cls-1" d="M226.54,93.86a.94.94,0,0,1-.95,1,4.7,4.7,0,0,0-4.6,5V108a.94.94,0,1,1-1.87,0V93.86a.94.94,0,0,1,1.87,0v1a6.36,6.36,0,0,1,4.6-1.9A.94.94,0,0,1,226.54,93.86Z"/><path class="cls-1" d="M256.83,89v19a.94.94,0,1,1-1.87,0v-1.66a7.33,7.33,0,0,1-5.7,2.61c-4.33,0-7.59-3.44-7.59-8s3.26-8,7.59-8a7.4,7.4,0,0,1,5.7,2.58V89a.94.94,0,1,1,1.87,0ZM255,101a5.81,5.81,0,0,0-5.7-6.14c-3.23,0-5.69,2.64-5.69,6.14A5.71,5.71,0,1,0,255,101Z"/><path class="cls-1" d="M268.55,109c-4.34,0-7.57-3.44-7.57-8a8.42,8.42,0,0,1,2-5.63,7.07,7.07,0,0,1,5.4-2.38c4.24,0,7.29,3.36,7.29,8a1,1,0,0,1-.94,1H262.91a5.71,5.71,0,0,0,5.64,5.16,5.37,5.37,0,0,0,4.74-2.67,1,1,0,0,1,1.31-.29,1,1,0,0,1,.32,1.3A7.33,7.33,0,0,1,268.55,109Zm-5.64-9h10.83c-.36-3.08-2.44-5.19-5.34-5.19A5.55,5.55,0,0,0,262.91,100Z"/><path class="cls-1" d="M298.21,106.29a.94.94,0,0,1,.12,1.34,3.85,3.85,0,0,1-6.76-2.49V94.81h-.86a.94.94,0,0,1,0-1.87h.86v-3a1,1,0,0,1,.95-1,.93.93,0,0,1,.94,1v3h3.36a.94.94,0,1,1,0,1.87h-3.36v10.33a2,2,0,0,0,2,1.92,1.83,1.83,0,0,0,1.46-.68A1,1,0,0,1,298.21,106.29Z"/><path class="cls-1" d="M315.21,93.86V108a.95.95,0,0,1-1.9,0v-1.07a6.47,6.47,0,0,1-4.72,2,6.07,6.07,0,0,1-4.62-2,7.27,7.27,0,0,1-1.72-4.81V93.86a.95.95,0,0,1,1.89,0v8.25c0,2.88,1.87,5,4.45,5a4.78,4.78,0,0,0,4.72-5V93.86a1,1,0,0,1,1.9,0Z"/><path class="cls-1" d="M339.68,109c-4.3,0-7.56-3.44-7.56-8s3.26-8,7.56-8a7.28,7.28,0,0,1,6.11,3.15.95.95,0,1,1-1.54,1.1,5.44,5.44,0,0,0-4.57-2.38c-3.23,0-5.69,2.64-5.69,6.14a5.8,5.8,0,0,0,5.69,6.11,5.42,5.42,0,0,0,4.57-2.34.94.94,0,0,1,1.31-.24.93.93,0,0,1,.23,1.31A7.3,7.3,0,0,1,339.68,109Z"/><path class="cls-1" d="M357.75,109a8,8,0,1,1,8-8A8,8,0,0,1,357.75,109Zm0-14.15a6.13,6.13,0,1,0,6.11,6.14A6.13,6.13,0,0,0,357.75,94.81Z"/><path class="cls-1" d="M377.33,109c-4.3,0-7.57-3.44-7.57-8s3.27-8,7.57-8a7.29,7.29,0,0,1,6.11,3.15.95.95,0,0,1-1.54,1.1,5.44,5.44,0,0,0-4.57-2.38,6.14,6.14,0,0,0,0,12.25,5.42,5.42,0,0,0,4.57-2.34.94.94,0,1,1,1.54,1.07A7.31,7.31,0,0,1,377.33,109Z"/><path class="cls-1" d="M388.81,89.41a1,1,0,0,1,1,1,1,1,0,0,1-1,1,1,1,0,0,1-1-1A1.05,1.05,0,0,1,388.81,89.41Zm0,19.55a1,1,0,0,1-.95-.95V93.86a1,1,0,0,1,.95-.92.94.94,0,0,1,.95.92V108A.94.94,0,0,1,388.81,109Z"/><path class="cls-1" d="M407.23,99.77V108a.94.94,0,1,1-1.87,0V99.77c0-2.85-1.87-5-4.45-5a4.81,4.81,0,0,0-4.74,5V108a.94.94,0,0,1-.95.95.92.92,0,0,1-.92-.95V93.86a.92.92,0,0,1,.92-.92.94.94,0,0,1,.95.92v1.07a6.56,6.56,0,0,1,4.74-2,6.05,6.05,0,0,1,4.63,2A7.17,7.17,0,0,1,407.23,99.77Z"/><path class="cls-1" d="M426.39,93.86V108a.95.95,0,1,1-1.89,0v-1.66a7.34,7.34,0,0,1-5.7,2.61c-4.3,0-7.56-3.44-7.56-8s3.26-8,7.56-8a7.41,7.41,0,0,1,5.7,2.58V93.86a.95.95,0,0,1,1.89,0ZM424.5,101c0-3.5-2.44-6.14-5.7-6.14s-5.67,2.64-5.67,6.14a5.7,5.7,0,1,0,11.37,0Z"/></svg>